<?xml version="1.0" encoding="utf-8"?>
<!-- Generator: Adobe Illustrator 25.0.0, SVG Export Plug-In . SVG Version: 6.00 Build 0)  -->
<svg version="1.1" id="Layer_1" xmlns="http://www.w3.org/2000/svg" xmlns:xlink="http://www.w3.org/1999/xlink" x="0px" y="0px"
	 viewBox="0 0 432 144" style="enable-background:new 0 0 432 144;" xml:space="preserve">
<style type="text/css">
	.st0{clip-path:url(#SVGID_2_);fill:#00A887;}
	.st1{fill:#00A887;}
	.st2{clip-path:url(#SVGID_4_);fill:#00A887;}
	.st3{clip-path:url(#SVGID_6_);fill:#00A887;}
	.st4{clip-path:url(#SVGID_8_);fill:#00A887;}
	.st5{clip-path:url(#SVGID_10_);fill:#00A887;}
	.st6{clip-path:url(#SVGID_12_);fill:#A15EB5;}
	.st7{fill:#A15EB5;}
	.st8{clip-path:url(#SVGID_14_);fill:#A15EB5;}
	.st9{clip-path:url(#SVGID_16_);fill:#A15EB5;}
	.st10{clip-path:url(#SVGID_18_);fill:#A15EB5;}
	.st11{clip-path:url(#SVGID_20_);fill:#A15EB5;}
	.st12{clip-path:url(#SVGID_22_);fill:#A15EB5;}
	.st13{clip-path:url(#SVGID_24_);fill:#A15EB5;}
	.st14{clip-path:url(#SVGID_26_);fill:#A15EB5;}
	.st15{clip-path:url(#SVGID_28_);fill:#A15EB5;}
	.st16{clip-path:url(#SVGID_30_);fill:#A15EB5;}
</style>
<g>
	<defs>
		<rect id="SVGID_1_" x="63.62" y="24" width="311.91" height="102.85"/>
	</defs>
	<clipPath id="SVGID_2_">
		<use xlink:href="#SVGID_1_"  style="overflow:visible;"/>
	</clipPath>
	<path class="st0" d="M63.62,100.87c0-6.42,5.55-11.83,11.88-11.83v7.87c-1.98,0.19-3.77,1.64-4.06,3.96H63.62z"/>
	<path class="st0" d="M71.44,102.03c0.29,2.32,2.08,3.77,4.06,3.96v7.87c-6.33,0-11.88-5.41-11.88-11.83H71.44z"/>
	<path class="st0" d="M80.81,100.87c-0.29-2.32-2.08-3.77-4.06-3.96v-7.87c6.33,0,11.88,5.41,11.88,11.83H80.81z"/>
	<path class="st0" d="M81.54,113.86v-1.55c-1.5,1.01-3.14,1.55-4.78,1.55v-7.87c1.98-0.19,3.77-1.64,4.06-3.96h7.82v11.83H81.54z"/>
	<path class="st0" d="M102.01,89.03v1.59c1.5-1.06,3.09-1.59,4.78-1.59v7.87c-1.98,0.19-3.77,1.64-4.06,3.96h-7.82v-0.34V89.03
		H102.01z"/>
</g>
<rect x="94.91" y="102.03" class="st1" width="7.82" height="11.83"/>
<rect x="112.11" y="76.04" class="st1" width="7.82" height="11.83"/>
<polygon class="st1" points="123.99,96.86 119.93,96.86 119.93,100.87 112.11,100.87 112.11,89.03 123.99,89.03 "/>
<g>
	<defs>
		<rect id="SVGID_3_" x="63.62" y="24" width="311.91" height="102.85"/>
	</defs>
	<clipPath id="SVGID_4_">
		<use xlink:href="#SVGID_3_"  style="overflow:visible;"/>
	</clipPath>
	<path class="st2" d="M119.93,102.03c0.29,2.32,2.08,3.77,4.06,3.96v7.87c-6.33,0-11.88-5.41-11.88-11.83H119.93z"/>
	<path class="st2" d="M148.48,89.03v1.59c1.5-1.06,3.09-1.59,4.78-1.59v7.87c-1.98,0.19-3.77,1.64-4.06,3.96h-7.82V89.03H148.48z"/>
	<path class="st2" d="M141.38,106.08h1.11c-0.72-1.26-1.11-2.66-1.11-4.06h7.82c0.29,2.32,2.08,3.77,4.06,3.96v7.87h-0.34h-11.54
		V106.08z"/>
</g>
<rect x="141.38" y="115.02" class="st1" width="7.82" height="11.83"/>
<g>
	<defs>
		<rect id="SVGID_5_" x="63.62" y="24" width="311.91" height="102.85"/>
	</defs>
	<clipPath id="SVGID_6_">
		<use xlink:href="#SVGID_5_"  style="overflow:visible;"/>
	</clipPath>
	<path class="st3" d="M158.57,100.87c-0.29-2.32-2.08-3.77-4.06-3.96v-7.87c6.33,0,11.88,5.41,11.88,11.83H158.57z"/>
	<path class="st3" d="M166.39,102.03c0,6.42-5.55,11.83-11.88,11.83v-7.87c1.98-0.19,3.77-1.64,4.06-3.96H166.39z"/>
	<path class="st3" d="M170.26,100.87c0-6.42,5.55-11.83,11.88-11.83v7.87c-1.98,0.19-3.77,1.64-4.06,3.96H170.26z"/>
	<path class="st3" d="M178.08,102.03c0.29,2.32,2.08,3.77,4.06,3.96v7.87c-6.33,0-11.88-5.41-11.88-11.83H178.08z"/>
	<path class="st3" d="M187.45,100.87c-0.29-2.32-2.08-3.77-4.06-3.96v-7.87c6.33,0,11.88,5.41,11.88,11.83H187.45z"/>
	<path class="st3" d="M188.18,113.86v-1.55c-1.5,1.01-3.14,1.55-4.78,1.55v-7.87c1.98-0.19,3.77-1.64,4.06-3.96h7.82v11.83H188.18z"
		/>
	<path class="st3" d="M208.66,89.03v1.59c1.5-1.06,3.09-1.59,4.78-1.59v7.87c-1.98,0.19-3.77,1.64-4.06,3.96h-7.82v-0.34V89.03
		H208.66z"/>
</g>
<rect x="201.56" y="102.03" class="st1" width="7.82" height="11.83"/>
<rect x="218.75" y="76.04" class="st1" width="7.82" height="11.83"/>
<polygon class="st1" points="230.63,96.86 226.57,96.86 226.57,100.87 218.75,100.87 218.75,89.03 230.63,89.03 "/>
<g>
	<defs>
		<rect id="SVGID_7_" x="63.62" y="24" width="311.91" height="102.85"/>
	</defs>
	<clipPath id="SVGID_8_">
		<use xlink:href="#SVGID_7_"  style="overflow:visible;"/>
	</clipPath>
	<path class="st4" d="M226.57,102.03c0.29,2.32,2.08,3.77,4.06,3.96v7.87c-6.33,0-11.88-5.41-11.88-11.83H226.57z"/>
</g>
<rect x="235.94" y="89.03" class="st1" width="7.82" height="11.83"/>
<g>
	<defs>
		<rect id="SVGID_9_" x="63.62" y="24" width="311.91" height="102.85"/>
	</defs>
	<clipPath id="SVGID_10_">
		<use xlink:href="#SVGID_9_"  style="overflow:visible;"/>
	</clipPath>
	<path class="st5" d="M243.77,102.03c0.29,2.32,2.08,3.77,4.06,3.96v7.87c-6.33,0-11.88-5.41-11.88-11.83H243.77z"/>
	<path class="st5" d="M253.14,113.86v-1.21c-1.3,0.82-2.56,1.21-4.06,1.21v-7.87c1.98-0.19,3.77-1.64,4.06-3.96h7.82v0.34v11.49
		H253.14z"/>
	<path class="st5" d="M260.96,115.02c0,6.42-5.55,11.83-11.88,11.83v-7.87c1.98-0.19,3.77-1.64,4.06-3.96H260.96z"/>
</g>
<rect x="253.14" y="89.03" class="st1" width="7.82" height="11.83"/>
<g>
	<defs>
		<rect id="SVGID_11_" x="63.62" y="24" width="311.91" height="102.85"/>
	</defs>
	<clipPath id="SVGID_12_">
		<use xlink:href="#SVGID_11_"  style="overflow:visible;"/>
	</clipPath>
	<path class="st6" d="M63.62,48.83c0-6.42,5.55-11.83,11.88-11.83v7.87c-1.98,0.19-3.77,1.64-4.06,3.96H63.62z"/>
	<path class="st6" d="M71.44,49.98c0.29,2.32,2.08,3.77,4.06,3.96v7.87c-6.33,0-11.88-5.41-11.88-11.83H71.44z"/>
	<path class="st6" d="M88.64,44.82h-1.16c0.77,1.26,1.16,2.61,1.16,4.01h-7.82c-0.19-1.98-1.74-3.72-4.06-4.01v-7.82h11.88V44.82z"
		/>
	<path class="st6" d="M81.54,61.82v-1.55c-1.5,1.01-3.14,1.55-4.78,1.55v-7.87c1.98-0.19,3.77-1.64,4.06-3.96h7.82v0.34v11.49H81.54
		z"/>
</g>
<rect x="80.81" y="24" class="st7" width="7.82" height="11.83"/>
<rect x="133.94" y="24" class="st7" width="7.82" height="11.83"/>
<g>
	<defs>
		<rect id="SVGID_13_" x="63.62" y="24" width="311.91" height="102.85"/>
	</defs>
	<clipPath id="SVGID_14_">
		<use xlink:href="#SVGID_13_"  style="overflow:visible;"/>
	</clipPath>
	<path class="st8" d="M141.76,36.99c0.29,2.32,2.08,3.77,4.06,3.96v7.87c-6.33,0-11.88-5.41-11.88-11.83H141.76z"/>
</g>
<rect x="142.54" y="49.98" class="st7" width="7.82" height="11.83"/>
<g>
	<defs>
		<rect id="SVGID_15_" x="63.62" y="24" width="311.91" height="102.85"/>
	</defs>
	<clipPath id="SVGID_16_">
		<use xlink:href="#SVGID_15_"  style="overflow:visible;"/>
	</clipPath>
	<path class="st9" d="M158.96,36.99c0,6.42-5.55,11.83-11.88,11.83v-7.87c1.98-0.19,3.77-1.64,4.06-3.96H158.96z"/>
</g>
<rect x="151.13" y="24" class="st7" width="7.82" height="11.83"/>
<g>
	<defs>
		<rect id="SVGID_17_" x="63.62" y="24" width="311.91" height="102.85"/>
	</defs>
	<clipPath id="SVGID_18_">
		<use xlink:href="#SVGID_17_"  style="overflow:visible;"/>
	</clipPath>
	<path class="st10" d="M161.86,48.83c0-6.42,5.55-11.83,11.88-11.83v7.87c-1.98,0.19-3.77,1.64-4.06,3.96H161.86z"/>
	<path class="st10" d="M169.68,49.98c0.29,2.32,2.08,3.77,4.06,3.96v7.87c-6.33,0-11.88-5.41-11.88-11.83H169.68z"/>
	<path class="st10" d="M179.05,48.83c-0.29-2.32-2.08-3.77-4.06-3.96v-7.87c6.33,0,11.88,5.41,11.88,11.83H179.05z"/>
	<path class="st10" d="M186.87,49.98c0,6.42-5.55,11.83-11.88,11.83v-7.87c1.98-0.19,3.77-1.64,4.06-3.96H186.87z"/>
</g>
<rect x="191.7" y="36.99" class="st7" width="7.82" height="11.83"/>
<g>
	<defs>
		<rect id="SVGID_19_" x="63.62" y="24" width="311.91" height="102.85"/>
	</defs>
	<clipPath id="SVGID_20_">
		<use xlink:href="#SVGID_19_"  style="overflow:visible;"/>
	</clipPath>
	<path class="st11" d="M199.53,49.98c0.29,2.32,2.08,3.77,4.06,3.96v7.87c-6.33,0-11.88-5.41-11.88-11.83H199.53z"/>
	<path class="st11" d="M209.62,61.82v-1.55c-1.5,1.01-3.14,1.55-4.78,1.55v-7.87c1.98-0.19,3.77-1.64,4.06-3.96h7.82v11.83H209.62z"
		/>
</g>
<rect x="208.9" y="36.99" class="st7" width="7.82" height="11.83"/>
<g>
	<defs>
		<rect id="SVGID_21_" x="63.62" y="24" width="311.91" height="102.85"/>
	</defs>
	<clipPath id="SVGID_22_">
		<use xlink:href="#SVGID_21_"  style="overflow:visible;"/>
	</clipPath>
	<path class="st12" d="M230.58,36.99v1.59c1.5-1.06,3.09-1.59,4.78-1.59v7.87c-1.98,0.19-3.77,1.64-4.06,3.96h-7.82v-0.34V36.99
		H230.58z"/>
</g>
<rect x="223.48" y="49.98" class="st7" width="7.82" height="11.83"/>
<g>
	<defs>
		<rect id="SVGID_23_" x="63.62" y="24" width="311.91" height="102.85"/>
	</defs>
	<clipPath id="SVGID_24_">
		<use xlink:href="#SVGID_23_"  style="overflow:visible;"/>
	</clipPath>
	<path class="st13" d="M240.68,48.83c-0.29-2.32-2.08-3.77-4.06-3.96v-7.87c6.33,0,11.88,5.41,11.88,11.83H240.68z"/>
</g>
<rect x="240.68" y="49.98" class="st7" width="7.82" height="11.83"/>
<g>
	<defs>
		<rect id="SVGID_25_" x="63.62" y="24" width="311.91" height="102.85"/>
	</defs>
	<clipPath id="SVGID_26_">
		<use xlink:href="#SVGID_25_"  style="overflow:visible;"/>
	</clipPath>
	<path class="st14" d="M265.21,36.99v7.87c-1.98,0.19-3.77,1.64-4.06,3.96h-7.83C253.33,42.4,258.89,36.99,265.21,36.99"/>
	<path class="st14" d="M265.21,53.94v7.87c-6.33,0-11.88-5.41-11.88-11.83h7.83C261.45,52.3,263.23,53.75,265.21,53.94"/>
	<path class="st14" d="M270.53,48.83c-0.29-2.32-2.08-3.77-4.06-3.96v-7.87c6.33,0,11.88,5.41,11.88,11.83H270.53z"/>
	<path class="st14" d="M270.53,60.61c-1.3,0.82-2.56,1.21-4.06,1.21v-7.87c1.98-0.19,3.77-1.64,4.06-3.96h7.82v11.83h-7.82V60.61z"
		/>
	<path class="st14" d="M266.47,74.81v-7.87c1.98-0.19,3.77-1.64,4.06-3.96h7.82C278.35,69.4,272.8,74.81,266.47,74.81"/>
	<path class="st14" d="M283.66,48.83c0-6.42,5.55-11.83,11.88-11.83v7.87c-1.98,0.19-3.77,1.64-4.06,3.96H283.66z"/>
	<path class="st14" d="M295.54,49.98c0,6.42-5.55,11.83-11.88,11.83v-7.87c1.98-0.19,3.77-1.64,4.06-3.96H295.54z"/>
</g>
<rect x="300.86" y="24" class="st7" width="7.82" height="11.83"/>
<polygon class="st7" points="312.74,44.82 308.68,44.82 308.68,48.83 300.86,48.83 300.86,36.99 312.74,36.99 "/>
<g>
	<defs>
		<rect id="SVGID_27_" x="63.62" y="24" width="311.91" height="102.85"/>
	</defs>
	<clipPath id="SVGID_28_">
		<use xlink:href="#SVGID_27_"  style="overflow:visible;"/>
	</clipPath>
	<path class="st15" d="M308.68,49.98c0.29,2.32,2.08,3.77,4.06,3.96v7.87c-6.33,0-11.88-5.41-11.88-11.83H308.68z"/>
	<path class="st15" d="M354.03,36.99v1.59c1.5-1.06,3.09-1.59,4.78-1.59v7.87c-1.98,0.19-3.77,1.64-4.06,3.96h-7.82v-0.34V36.99
		H354.03z"/>
</g>
<rect x="346.93" y="49.98" class="st7" width="7.82" height="11.83"/>
<g>
	<defs>
		<rect id="SVGID_29_" x="63.62" y="24" width="311.91" height="102.85"/>
	</defs>
	<clipPath id="SVGID_30_">
		<use xlink:href="#SVGID_29_"  style="overflow:visible;"/>
	</clipPath>
	<path class="st16" d="M363.64,48.83c0-6.42,5.55-11.83,11.88-11.83v7.87c-1.98,0.19-3.77,1.64-4.06,3.96H363.64z"/>
	<path class="st16" d="M375.53,49.98c0,6.42-5.55,11.83-11.88,11.83v-7.87c1.98-0.19,3.77-1.64,4.06-3.96H375.53z"/>
	<path class="st16" d="M101.77,49.98c0.29,2.32,2.08,3.77,4.06,3.96v7.87c-6.33,0-11.88-5.41-11.88-11.83H101.77z"/>
	<path class="st16" d="M93.95,48.83h6.8h1.02h4.06v-3.96v-0.65v-7.22C99.5,36.99,93.95,42.4,93.95,48.83"/>
	<path class="st16" d="M118.97,48.83h-6.8h-1.02h-4.06v-3.96v-0.65v-7.22C113.41,36.99,118.97,42.4,118.97,48.83"/>
	<path class="st16" d="M324.92,49.98c0.29,2.32,2.08,3.77,4.06,3.96v7.87c-6.33,0-11.88-5.41-11.88-11.83H324.92z"/>
	<path class="st16" d="M317.09,48.83h6.8h1.02h4.06v-3.96v-0.65v-7.22C322.65,36.99,317.09,42.4,317.09,48.83"/>
	<path class="st16" d="M342.11,48.83h-6.8h-1.02h-4.06v-3.96v-0.65v-7.22C336.56,36.99,342.11,42.4,342.11,48.83"/>
</g>
</svg>
