<svg xmlns="http://www.w3.org/2000/svg" width="22" height="22" viewBox="0 0 22 22">
  <g id="Icon" transform="translate(-18 -9)">
    <g id="Canvas" transform="translate(18 9)" fill="#fff" stroke="#fff" stroke-width="1" opacity="0">
      <rect width="22" height="22" stroke="none"/>
      <rect x="0.5" y="0.5" width="21" height="21" fill="none"/>
    </g>
    <g id="Rectangle_140514" transform="translate(31.521 15.521) rotate(45)" fill="#fff" stroke="#fff" stroke-width="1">
      <rect width="2.5" height="18.074" rx="0.5" stroke="none"/>
      <rect x="0.5" y="0.5" width="1.5" height="17.074" fill="none"/>
    </g>
    <path id="Path_866" d="M18.253,8.78l.039,1.078a.878.878,0,0,0,.449.734l.941.528-1.078.039a.88.88,0,0,0-.735.448l-.527.941L17.3,11.47a.88.88,0,0,0-.448-.735l-.941-.527,1.077-.039a.879.879,0,0,0,.735-.448Z" transform="translate(18 9)" fill="#fff"/>
    <path id="Path_867" d="M17.853,1.052l.06,1.679a1.372,1.372,0,0,0,.7,1.145l1.466.821L18.4,4.758a1.369,1.369,0,0,0-1.145.7l-.821,1.465-.06-1.679a1.371,1.371,0,0,0-.7-1.144l-1.466-.821,1.679-.061a1.369,1.369,0,0,0,1.145-.7Z" transform="translate(18 9)" fill="#fff"/>
    <path id="Path_868" d="M9.18,1.268l.07,1.925a1.568,1.568,0,0,0,.8,1.313l1.681.942-1.925.069a1.571,1.571,0,0,0-1.313.8L7.552,8,7.483,6.075a1.569,1.569,0,0,0-.8-1.313L5,3.82l1.926-.069a1.572,1.572,0,0,0,1.313-.8Z" transform="translate(18 9)" fill="#fff"/>
  </g>
</svg>
