<svg id="Single_icon" xmlns="http://www.w3.org/2000/svg" width="24" height="24" viewBox="0 0 24 24">
  <g id="Icon">
    <path id="Path_4" d="M10,6a4,4,0,1,0,4,4A4,4,0,0,0,10,6Z" transform="translate(2 2)" fill="#fff"/>
    <path id="Path_5" d="M21.667,4.667H17.633L15.4,2.217A.667.667,0,0,0,14.906,2H8.427a.667.667,0,0,0-.493.217L5.7,4.667H1.667A.667.667,0,0,0,1,5.333V18.667a.667.667,0,0,0,.667.667h20a.667.667,0,0,0,.667-.667V5.333A.667.667,0,0,0,21.667,4.667Zm-10,12.133a5.467,5.467,0,1,1,5.467-5.467A5.467,5.467,0,0,1,11.667,16.8Z" transform="translate(0.333 0.667)" fill="#fff"/>
  </g>
</svg>
